<svg xmlns="http://www.w3.org/2000/svg" viewBox="0 0 340 385" width="340" height="385" role="img" aria-label="Everly"><path fill="#FFFFFF" fill-rule="evenodd" d="M149.0 4.5L140.5 13.0L135.5 23.0L134.5 33.0L137.5 44.0L139.5 45.0L139.5 42.0L142.5 36.0L141.5 47.0L138.5 53.0L111.5 83.0L101.5 97.0L98.0 104.5L96.5 104.0L90.5 92.0L80.5 79.0L83.0 79.5L93.0 91.5L94.5 90.0L91.5 77.0L87.5 70.0L80.0 62.5L75.0 59.5L64.0 56.5L56.5 57.0L57.5 68.0L63.5 81.0L72.0 89.5L89.0 98.5L93.5 106.0L91.5 138.0L94.5 153.0L100.5 168.0L116.5 192.0L144.5 221.0L133.0 211.5L115.0 200.5L104.5 190.0L92.5 169.0L92.5 167.0L84.5 156.0L79.0 151.5L68.0 146.5L53.0 146.5L45.5 150.0L64.0 151.5L70.0 154.5L78.5 163.0L83.5 173.0L87.5 188.0L96.5 203.0L96.0 204.5L89.0 206.5L82.0 210.5L77.5 215.0L72.5 223.0L70.5 233.0L72.5 233.0L75.5 226.0L81.0 219.5L88.0 215.5L95.0 213.5L103.0 213.5L112.0 215.5L122.0 220.5L134.5 231.0L143.5 245.0L147.5 258.0L149.0 281.5L151.5 278.0L160.5 255.0L161.5 235.0L157.5 223.0L142.5 200.0L134.5 184.0L131.5 171.0L131.5 164.0L135.5 152.0L139.0 147.5L145.0 143.5L151.0 141.5L154.0 142.5L157.0 141.5L169.0 146.5L170.5 145.0L163.0 134.5L157.0 130.5L147.0 127.5L140.0 127.5L130.0 130.5L118.5 139.0L128.0 128.5L136.0 124.5L151.0 120.5L158.5 113.0L160.5 108.0L160.5 99.0L155.0 90.5L149.0 87.5L140.0 87.5L134.0 90.5L130.5 94.0L127.5 100.0L127.5 114.0L120.0 120.5L116.0 120.5L112.5 116.0L111.5 101.0L113.5 94.0L119.5 83.0L136.5 63.0L151.5 43.0L156.5 34.0L157.5 18.0L154.5 10.0L150.0 4.5Z M189.0 4.5L184.5 12.0L181.5 23.0L183.5 35.0L199.5 58.0L215.5 76.0L221.5 85.0L227.5 99.0L228.5 119.0L226.5 126.0L221.5 135.0L217.0 135.5L215.5 134.0L216.5 116.0L213.5 110.0L210.0 106.5L204.0 103.5L194.0 104.5L187.5 110.0L185.5 114.0L184.5 123.0L187.5 130.0L196.0 136.5L209.0 140.5L216.5 148.0L217.5 151.0L209.0 144.5L199.0 143.5L188.0 149.5L181.5 159.0L184.0 159.5L190.0 156.5L201.0 157.5L204.5 161.0L207.5 168.0L207.5 183.0L202.5 197.0L181.5 227.0L179.0 232.5L181.0 232.5L207.0 211.5L219.5 198.0L229.5 184.0L239.5 165.0L245.5 145.0L247.5 132.0L247.5 121.0L246.5 120.0L247.5 105.0L249.5 101.0L255.0 95.5L268.0 89.5L276.5 81.0L280.5 73.0L283.5 61.0L283.5 58.0L282.0 56.5L270.0 57.5L261.0 61.5L253.5 68.0L247.5 79.0L245.5 91.0L247.0 91.5L248.5 88.0L257.0 79.5L257.5 81.0L247.5 95.0L241.0 110.5L239.5 109.0L236.5 97.0L227.5 81.0L202.5 54.0L198.5 47.0L196.5 34.0L197.5 34.0L200.5 45.0L202.5 44.0L204.5 38.0L204.5 24.0L200.5 15.0L190.0 4.5Z M113.0 24.5L112.5 33.0L116.5 42.0L125.0 49.5L133.0 52.5L134.5 52.0L134.5 43.0L130.5 34.0L122.0 26.5L114.0 24.5Z M224.0 24.5L215.0 28.5L208.5 35.0L204.5 46.0L204.5 51.0L206.0 52.5L215.0 49.5L223.5 42.0L227.5 32.0L227.5 25.0L225.0 24.5Z M90.0 36.5L87.5 43.0L87.5 53.0L86.5 54.0L89.5 65.0L94.5 73.0L102.0 78.5L104.5 78.0L104.0 66.5L106.5 72.0L106.5 78.0L108.0 79.5L109.5 79.0L111.5 72.0L111.5 58.0L109.5 52.0L101.0 41.5L91.0 36.5Z M247.0 36.5L240.0 40.5L232.5 48.0L229.5 54.0L228.5 73.0L231.0 79.5L232.5 79.0L232.5 73.0L235.0 67.5L236.0 79.5L241.0 76.5L250.5 65.0L252.5 58.0L252.5 45.0L250.5 37.0L248.0 36.5Z M168.0 40.5L155.0 45.5L146.5 53.0L138.5 69.0L140.0 69.5L147.0 65.5L148.5 66.0L144.0 70.5L139.0 72.5L138.0 74.5L152.0 73.5L159.0 70.5L164.5 66.0L169.5 59.0L172.5 50.0L172.5 41.0L169.0 40.5Z M180.0 52.5L178.5 56.0L178.5 67.0L183.5 80.0L192.0 89.5L208.0 97.5L210.0 97.5L210.5 95.0L200.5 80.0L202.0 79.5L209.5 89.0L214.0 92.5L214.5 88.0L209.5 73.0L204.5 66.0L198.0 60.5L181.0 52.5Z M46.0 90.5L43.5 96.0L43.5 110.0L46.5 120.0L51.5 129.0L59.0 136.5L72.0 143.5L74.5 143.0L74.5 140.0L68.5 122.0L73.5 127.0L79.0 140.5L81.5 134.0L81.5 120.0L79.5 113.0L75.5 106.0L69.0 99.5L56.0 92.5L47.0 90.5Z M291.0 90.5L279.0 94.5L272.0 98.5L264.5 106.0L259.5 115.0L257.5 131.0L261.0 140.5L265.5 128.0L271.5 121.0L265.5 139.0L266.0 143.5L282.0 135.5L287.5 130.0L293.5 120.0L296.5 102.0L295.5 92.0L292.0 90.5Z M20.0 120.5L18.5 122.0L20.5 128.0L25.5 136.0L32.0 141.5L39.0 144.5L52.5 143.0L52.5 139.0L49.5 132.0L45.0 126.5L37.0 121.5L21.0 120.5Z M306.0 120.5L296.0 125.5L290.5 132.0L286.5 142.0L292.0 144.5L304.0 143.5L311.0 139.5L316.5 133.0L319.5 127.0L320.5 121.0L307.0 120.5Z M272.0 146.5L256.0 154.5L242.5 169.0L225.5 197.0L207.0 215.5L187.0 230.5L166.5 252.0L158.5 265.0L154.5 275.0L150.5 288.0L149.5 299.0L145.5 314.0L134.5 333.0L124.0 342.5L111.0 349.5L92.0 353.5L79.0 358.5L69.5 367.0L70.0 369.5L83.0 364.5L102.0 363.5L119.0 360.5L139.0 352.5L152.0 343.5L166.5 327.0L175.5 310.0L180.5 297.0L188.5 266.0L194.5 254.0L199.5 247.0L217.0 230.5L231.0 222.5L247.0 219.5L260.0 223.5L268.5 233.0L267.5 223.0L262.0 215.5L254.0 210.5L247.0 208.5L238.0 208.5L237.5 207.0L243.5 199.0L252.5 181.0L253.5 176.0L261.5 162.0L273.0 152.5L279.0 150.5L294.5 150.0L286.0 146.5L273.0 146.5Z M29.0 149.5L21.0 151.5L13.0 156.5L4.5 166.0L11.0 172.5L26.0 178.5L43.0 177.5L55.0 171.5L58.0 171.5L62.0 173.5L65.0 177.5L66.5 177.0L62.5 169.0L55.0 163.5L41.5 161.0L58.0 161.5L55.0 157.5L42.0 150.5L30.0 149.5Z M302.0 149.5L294.0 151.5L283.0 158.5L281.5 160.0L282.0 162.5L285.0 160.5L295.5 161.0L281.0 165.5L274.5 172.0L273.5 175.0L274.0 177.5L279.0 172.5L285.0 171.5L294.0 176.5L301.0 178.5L313.0 178.5L323.0 175.5L330.0 171.5L334.5 167.0L334.5 165.0L322.0 153.5L316.0 150.5L303.0 149.5Z M168.0 163.5L165.0 164.5L158.5 173.0L159.5 182.0L163.0 186.5L167.0 188.5L176.0 187.5L181.5 181.0L180.5 169.0L173.0 163.5L169.0 163.5Z M200.0 170.5L191.0 183.5L178.0 190.5L172.0 197.5L165.0 190.5L151.0 184.5L144.5 178.0L142.5 173.0L141.0 171.5L139.5 172.0L140.5 181.0L143.5 188.0L157.5 204.0L163.5 215.0L165.5 224.0L165.5 237.0L163.5 246.0L165.0 246.5L172.5 237.0L185.5 206.0L197.5 188.0L200.5 178.0L200.5 171.0Z M54.0 182.5L47.5 186.0L50.5 194.0L55.5 201.0L61.0 205.5L71.0 209.5L78.0 209.5L83.5 207.0L72.5 200.0L75.0 199.5L84.0 202.5L84.5 201.0L81.5 194.0L73.0 185.5L69.0 183.5L55.0 182.5Z M273.0 182.5L263.0 187.5L254.5 199.0L255.0 202.5L265.0 199.5L267.5 200.0L255.5 207.0L256.0 208.5L261.0 209.5L273.0 208.5L280.0 204.5L286.5 198.0L292.5 187.0L291.0 184.5L286.0 182.5L274.0 182.5Z M37.0 202.5L28.0 206.5L23.5 210.0L23.5 212.0L27.0 215.5L40.0 220.5L47.0 220.5L54.0 218.5L61.0 214.5L61.5 212.0L50.0 203.5L38.0 202.5Z M294.0 202.5L286.0 205.5L278.5 212.0L278.5 214.0L282.0 216.5L293.0 220.5L304.0 219.5L316.5 212.0L313.0 207.5L306.0 203.5L295.0 202.5Z M69.0 218.5L59.0 219.5L54.0 221.5L45.5 231.0L43.5 237.0L44.0 241.5L54.0 241.5L62.0 238.5L67.5 233.0L69.5 229.0L70.5 225.0L66.5 225.0L71.5 220.0L70.0 218.5Z M268.0 218.5L269.5 222.0L274.5 226.0L269.5 225.0L272.5 233.0L278.0 238.5L285.0 241.5L295.0 241.5L296.5 240.0L294.5 232.0L291.5 227.0L284.0 220.5L269.0 218.5Z M98.0 222.5L83.0 228.5L77.5 234.0L72.5 243.0L70.5 250.0L70.5 257.0L72.0 258.5L90.0 258.5L97.0 256.5L105.0 251.5L120.0 233.5L129.5 233.0L128.0 230.5L125.0 229.5L113.0 229.5L101.0 233.5L107.0 228.5L112.0 227.5L114.5 225.0L105.0 222.5L99.0 222.5Z M233.0 226.5L224.5 230.0L226.0 231.5L235.0 233.5L238.0 236.5L233.0 234.5L223.0 233.5L216.0 235.5L215.5 237.0L222.0 239.5L236.0 253.5L249.0 258.5L266.0 257.5L268.5 255.0L264.5 242.0L260.5 236.0L253.0 229.5L246.0 226.5L234.0 226.5Z M187.0 281.5L176.5 318.0L169.5 332.0L162.5 342.0L155.0 349.5L145.0 356.5L123.0 367.5L116.5 375.0L116.0 379.5L127.0 374.5L144.0 372.5L155.0 369.5L171.0 360.5L185.0 369.5L198.0 373.5L213.0 375.5L218.0 378.5L218.5 376.0L215.0 370.5L200.0 361.5L191.5 353.0L187.5 345.0L188.0 342.5L201.0 355.5L217.0 362.5L227.0 364.5L254.0 364.5L269.5 369.0L269.5 367.0L260.0 358.5L248.0 353.5L235.0 351.5L223.0 347.5L207.5 337.0L198.5 325.0L194.5 317.0L188.5 295.0L188.0 281.5Z"></path></svg>